<svg xmlns="http://www.w3.org/2000/svg" viewBox="0 0 34 34"><defs><style>.a{fill:#fff;}</style></defs><rect class="a" x="18.5" y="7.5" width="2" height="17" transform="translate(3.5 35.5) rotate(-90)"/><rect class="a" x="13.5" y="13.5" width="2" height="17" transform="translate(-7.5 36.5) rotate(-90)"/><rect class="a" x="26" y="9" width="2" height="8" transform="translate(54 26) rotate(-180)"/><rect class="a" x="21" y="21" width="2" height="8" transform="translate(44 50) rotate(-180)"/><rect class="a" x="14.5" y="1.5" width="2" height="5" transform="translate(11.5 19.5) rotate(-90)"/><rect class="a" x="24.5" y="7.5" width="2" height="5" transform="translate(15.5 35.5) rotate(-90)"/><rect class="a" x="19.5" y="25.5" width="2" height="5" transform="translate(-7.5 48.5) rotate(-90)"/><rect class="a" x="11" y="4" width="2" height="12" transform="translate(2 22) rotate(-90)"/><rect class="a" x="16" y="3" width="2" height="8"/></svg>