<svg xmlns="http://www.w3.org/2000/svg" viewBox="0 0 34 34"><defs><style>.a{fill:#fff;}</style></defs><rect class="a" x="16" y="-6" width="2" height="22" transform="translate(12 22) rotate(-90)"/><rect class="a" x="9.5" y="18.5" width="2" height="9" transform="translate(-12.5 33.5) rotate(-90)"/><rect class="a" x="9.5" y="6.5" width="2" height="9" transform="translate(-0.5 21.5) rotate(-90)"/><rect class="a" x="9.5" y="12.5" width="2" height="9" transform="translate(-6.5 27.5) rotate(-90)"/><rect class="a" x="6" y="4" width="2" height="18" transform="translate(14 26) rotate(-180)"/><rect class="a" x="16" y="18" width="2" height="22" transform="translate(46 12) rotate(90)"/><rect class="a" x="22.5" y="6.5" width="2" height="9" transform="translate(34.5 -12.5) rotate(90)"/><rect class="a" x="22.5" y="18.5" width="2" height="9" transform="translate(46.5 -0.5) rotate(90)"/><rect class="a" x="22.5" y="12.5" width="2" height="9" transform="translate(40.5 -6.5) rotate(90)"/><rect class="a" x="26" y="12" width="2" height="18"/></svg>