<svg xmlns="http://www.w3.org/2000/svg" viewBox="0 0 34 33.75"><defs><style>.a{fill:#fff;}</style></defs><rect class="a" x="16" y="3" width="2" height="4" transform="translate(12 22) rotate(-90)"/><rect class="a" x="16" y="17" width="2" height="12" transform="translate(-6 40) rotate(-90)"/><rect class="a" x="16" y="9" width="2" height="4" transform="translate(6 28) rotate(-90)"/><rect class="a" x="16" y="15" width="2" height="4" transform="translate(0 34) rotate(-90)"/><rect class="a" x="6" y="4" width="2" height="26"/><rect class="a" x="26" y="4" width="2" height="26"/><rect class="a" x="21" y="4" width="2" height="20"/><rect class="a" x="11" y="4" width="2" height="20"/><rect class="a" x="6" y="4" width="2" height="26"/><rect class="a" x="26" y="4" width="2" height="26"/><rect class="a" x="8.5" y="1.5" width="2" height="7" transform="matrix(0, -1, 1, 0, 4.5, 14.5)"/><rect class="a" x="23.5" y="1.5" width="2" height="7" transform="matrix(0, -1, 1, 0, 19.5, 29.5)"/></svg>