<svg xmlns="http://www.w3.org/2000/svg" viewBox="0 0 34 34"><defs><style>.a{fill:#fff;}</style></defs><rect class="a" x="8" width="2" height="8" transform="translate(5 13) rotate(-90)"/><rect class="a" x="24" width="2" height="8" transform="matrix(0, -1, 1, 0, 21, 29)"/><rect class="a" x="16" y="5" width="2" height="22" transform="translate(1 33) rotate(-90)"/><rect class="a" x="11" y="3" width="2" height="14" transform="translate(24 20) rotate(-180)"/><rect class="a" x="21" y="3" width="2" height="14" transform="translate(44 20) rotate(-180)"/><rect class="a" x="16" y="11" width="2" height="22" transform="translate(-5 39) rotate(-90)"/><rect class="a" x="16" y="18" width="2" height="22" transform="translate(-12 46) rotate(-90)"/><rect class="a" x="16" y="21" width="2" height="9"/><rect class="a" x="6" y="15" width="2" height="8"/><rect class="a" x="26" y="15" width="2" height="8"/></svg>