<svg xmlns="http://www.w3.org/2000/svg" viewBox="0 0 34 34"><defs><style>.a{fill:#fff;}</style></defs><rect class="a" x="26" y="15" width="2" height="14"/><rect class="a" x="21" y="9" width="2" height="8"/><rect class="a" x="11" y="3" width="2" height="8"/><rect class="a" x="11" y="15" width="2" height="8"/><rect class="a" x="6" y="21" width="2" height="8"/><rect class="a" x="6" y="9" width="2" height="8"/><rect class="a" x="26" y="3" width="2" height="8"/><rect class="a" x="16" y="21" width="2" height="8"/><rect class="a" x="18.5" y="-4.5" width="2" height="17" transform="translate(15.5 23.5) rotate(-90)"/><rect class="a" x="11" y="16" width="2" height="12" transform="translate(-10 34) rotate(-90)"/><rect class="a" x="13.5" y="1.5" width="2" height="17" transform="translate(4.5 24.5) rotate(-90)"/><rect class="a" x="18.5" y="7.5" width="2" height="17" transform="translate(3.5 35.5) rotate(-90)"/></svg>