<svg xmlns="http://www.w3.org/2000/svg" viewBox="0 0 34 34"><defs><style>.a{fill:#fff;}</style></defs><rect class="a" x="6" y="9" width="2" height="21"/><rect class="a" x="16" y="-2" width="2" height="12" transform="translate(13 21) rotate(-90)"/><rect class="a" x="16" y="16" width="2" height="12" transform="translate(-5 39) rotate(-90)"/><rect class="a" x="16" y="4" width="2" height="12" transform="translate(7 27) rotate(-90)"/><rect class="a" x="16" y="10" width="2" height="12" transform="translate(1 33) rotate(-90)"/><rect class="a" x="11" y="3" width="2" height="18" transform="translate(24 24) rotate(-180)"/><rect class="a" x="21" y="3" width="2" height="18" transform="translate(44 24) rotate(-180)"/><rect class="a" x="26" y="9" width="2" height="21" transform="translate(54 39) rotate(-180)"/><rect class="a" x="30" y="21" width="2" height="9" transform="translate(62 51) rotate(-180)"/><rect class="a" x="2" y="21" width="2" height="9" transform="translate(6 51) rotate(-180)"/><rect class="a" x="16" y="21" width="2" height="9"/></svg>