<?xml version="1.0" encoding="utf-8"?>
<!-- Generator: Adobe Illustrator 24.2.3, SVG Export Plug-In . SVG Version: 6.00 Build 0)  -->
<svg version="1.1" id="Layer_1" xmlns="http://www.w3.org/2000/svg" xmlns:xlink="http://www.w3.org/1999/xlink" x="0px" y="0px"
	 viewBox="0 0 959 288.8" style="enable-background:new 0 0 959 288.8;" xml:space="preserve">
<style type="text/css">
	.st0{fill:#444444;}
</style>
<g>
	<path class="st0" d="M0,102.2V203h100.8V102.2H0z M54.1,156.3h-7.4v-7.4h7.4V156.3z"/>
	<polygon class="st0" points="183.6,67.4 135.4,67.4 135.4,66 168.5,66 168.5,16.3 68.8,16.3 68.8,66 102.1,66 102.1,67.4 
		53.7,67.4 53.7,100.8 102.1,100.8 102.1,167.9 135.4,167.9 135.4,100.8 183.6,100.8 	"/>
	<path class="st0" d="M330.1,102.2H229.3V203h27v12.2h46.7V203h27.1V102.2z M283.4,156.3H276v-7.4h7.4L283.4,156.3z"/>
	<rect x="214.8" y="54.1" class="st0" width="129.9" height="46.7"/>
	<path class="st0" d="M564.2,102.2H463.4V203h27.1v12.2h46.7V203h27L564.2,102.2z M517.5,156.3h-7.4v-7.4h7.4V156.3z"/>
	<rect x="448.8" y="54.1" class="st0" width="129.9" height="46.7"/>
	<rect x="580.2" y="54.1" class="st0" width="129.9" height="46.7"/>
	<path class="st0" d="M461.8,102.2h-14.7V74.8h-26.8V63.7h-46.7v11.1h-27.3v27.4h-14.5v46.7h14.5v26.7h27v13h46.7v-13h27.1v-26.7
		h14.7L461.8,102.2z M400.4,128.9H393v-7.4h7.4L400.4,128.9z"/>
	<rect x="565.8" y="102.2" class="st0" width="129.9" height="46.7"/>
	<path class="st0" d="M585,150.6v138.2h37.1v-59h17v59h37V150.6H585z M639.1,192.8h-17v-5.1h17V192.8z"/>
	<path class="st0" d="M137,102.2v138h37v-59h17v59h37v-138H137z M191,144.2h-17v-5h17V144.2z"/>
	<path class="st0" d="M697.3,102.2v138.3h37v-59h17v59h37.1V102.2H697.3z M741,144.4h-6.7v-5.1h6.7L741,144.4z M751.4,144.4h-6.7
		v-5.1h6.7V144.4z"/>
	<path class="st0" d="M711.7,0v100.8h136.7V0H711.7z M801.7,54.1h-43.3V49h43.4L801.7,54.1z"/>
	<rect x="790" y="102.2" class="st0" width="169" height="37.1"/>
	<rect x="685.7" y="28.1" class="st0" width="24.5" height="24.5"/>
	<rect x="27.9" y="76.3" class="st0" width="24.5" height="24.5"/>
	<rect x="358.4" y="59.7" class="st0" width="13.3" height="13.3"/>
	<rect x="122.1" y="169.1" class="st0" width="13.3" height="13.3"/>
</g>
</svg>
